<?xml version="1.0" standalone="no"?>
<!DOCTYPE svg PUBLIC "-//W3C//DTD SVG 20010904//EN"
 "http://www.w3.org/TR/2001/REC-SVG-20010904/DTD/svg10.dtd">
<svg version="1.0" xmlns="http://www.w3.org/2000/svg"
 width="225.000000pt" height="225.000000pt" viewBox="0 0 225.000000 225.000000"
 preserveAspectRatio="xMidYMid meet">

<g transform="translate(0.000000,225.000000) scale(0.100000,-0.100000)"
fill="#000000" stroke="none">
<path d="M663 1916 l-452 -261 0 -530 0 -530 451 -259 c248 -143 456 -259 463
-259 7 0 215 116 463 259 l451 259 0 530 0 530 -447 257 c-246 141 -454 259
-462 261 -8 3 -218 -113 -467 -257z m545 -191 c1 -69 -2 -130 -8 -145 -6 -15
-51 -67 -101 -116 l-89 -89 -198 -3 c-185 -2 -198 -4 -215 -23 -21 -26 -22
-87 -1 -117 15 -21 21 -22 191 -22 l176 0 187 185 187 185 190 0 c179 0 192
-1 234 -23 27 -14 57 -42 77 -71 l32 -48 0 -138 c0 -132 -1 -138 -25 -164 -13
-14 -29 -26 -35 -26 -6 0 5 -15 25 -34 l36 -35 -3 -144 c-3 -140 -4 -145 -32
-185 -17 -26 -47 -51 -79 -67 -50 -25 -55 -25 -281 -25 -279 0 -266 6 -266
-120 0 -53 -5 -91 -12 -98 -16 -16 -170 -16 -186 0 -8 8 -12 53 -12 138 0 139
13 182 66 232 57 53 83 58 333 58 266 0 261 -2 261 85 0 84 -3 85 -262 85
-120 0 -218 3 -218 8 0 15 176 181 203 191 16 6 79 11 141 11 74 0 116 4 124
12 7 7 12 37 12 68 0 31 -5 61 -12 68 -14 14 -201 17 -226 3 -9 -5 -89 -82
-177 -171 -88 -89 -172 -168 -187 -176 -21 -11 -80 -14 -278 -14 -283 0 -298
3 -359 77 -41 49 -54 116 -49 244 4 111 21 161 70 206 50 47 83 53 308 53 263
0 250 -8 250 148 0 60 3 112 7 116 4 4 50 5 103 4 l95 -3 3 -120z"/>
</g>
</svg>
