<?xml version="1.0" standalone="no"?>
<!DOCTYPE svg PUBLIC "-//W3C//DTD SVG 20010904//EN"
 "http://www.w3.org/TR/2001/REC-SVG-20010904/DTD/svg10.dtd">
<svg version="1.0" xmlns="http://www.w3.org/2000/svg"
 width="192.000000pt" height="176.000000pt" viewBox="0 0 192.000000 176.000000"
 preserveAspectRatio="xMidYMid meet">

<g transform="translate(0.000000,176.000000) scale(0.100000,-0.100000)"
fill="#000000" stroke="none">
<path d="M645 1711 c-71 -21 -142 -41 -157 -45 -28 -6 -28 -7 -28 -96 l0 -89
58 -3 57 -3 3 -209 2 -209 -162 -164 -162 -163 -36 35 c-20 19 -40 35 -45 35
-6 -1 -45 -33 -87 -73 l-77 -72 77 -131 c42 -72 96 -153 119 -180 l42 -49 335
335 336 335 0 392 0 393 -72 -1 c-53 0 -109 -11 -203 -38z"/>
<path d="M1000 1357 l0 -392 335 -335 335 -335 35 40 c43 49 197 304 193 320
-2 6 -37 43 -79 83 l-76 71 -39 -40 -38 -39 -163 162 -163 163 0 212 0 213 60
0 60 0 0 89 0 88 -165 47 c-119 33 -183 46 -230 46 l-65 0 0 -393z"/>
<path d="M632 562 l-311 -319 52 -50 c32 -31 100 -76 176 -118 l124 -67 76 76
75 76 -42 43 -42 43 108 102 109 101 107 -101 107 -101 -40 -41 -41 -42 78
-77 77 -76 130 70 c119 65 215 138 215 163 0 14 -622 636 -636 636 -6 0 -151
-143 -322 -318z"/>
</g>
</svg>
