<?xml version="1.0" standalone="no"?>
<!DOCTYPE svg PUBLIC "-//W3C//DTD SVG 20010904//EN"
 "http://www.w3.org/TR/2001/REC-SVG-20010904/DTD/svg10.dtd">
<svg version="1.0" xmlns="http://www.w3.org/2000/svg"
 width="300.000000pt" height="300.000000pt" viewBox="0 0 300.000000 300.000000"
 preserveAspectRatio="xMidYMid meet">

<g transform="translate(0.000000,300.000000) scale(0.100000,-0.100000)"
fill="#000000" stroke="none">
<path d="M1443 2250 c-42 -33 -133 -137 -133 -151 0 -2 86 -4 190 -4 105 0
190 2 190 4 0 26 -165 191 -190 191 -4 0 -30 -18 -57 -40z"/>
<path d="M210 2191 c-19 -16 -33 -32 -30 -35 7 -6 262 -128 340 -162 36 -15
46 -17 30 -6 -81 57 -183 135 -231 180 -31 29 -61 52 -66 52 -5 0 -24 -13 -43
-29z"/>
<path d="M2683 2170 c-45 -41 -139 -115 -234 -183 -26 -18 59 18 249 108 67
32 122 62 122 66 0 10 -64 59 -76 59 -5 -1 -33 -23 -61 -50z"/>
<path d="M1001 2103 c-25 -27 -58 -71 -73 -99 l-28 -51 84 42 c46 23 120 50
165 61 44 10 81 22 81 25 0 4 -16 10 -36 14 -20 3 -61 17 -92 31 l-55 24 -46
-47z"/>
<path d="M1890 2124 c-25 -12 -62 -26 -82 -29 -40 -7 -52 -25 -18 -25 38 0
205 -59 253 -90 26 -16 50 -30 53 -30 3 0 -7 24 -23 52 -29 54 -112 149 -129
147 -5 -1 -29 -12 -54 -25z"/>
<path d="M150 2056 c0 -70 25 -131 106 -253 40 -62 76 -113 79 -113 5 0 458
-124 496 -135 14 -5 14 3 3 72 -7 43 -16 98 -19 123 l-6 45 -321 150 c-176 83
-324 152 -329 153 -5 2 -9 -17 -9 -42z"/>
<path d="M2515 1947 c-176 -83 -321 -151 -322 -152 -1 -1 -9 -48 -17 -106 -8
-57 -18 -113 -22 -123 -6 -15 -3 -17 14 -12 33 11 492 136 498 136 12 0 145
216 163 265 20 54 29 146 14 144 -5 0 -152 -69 -328 -152z"/>
<path d="M1305 2029 c-87 -11 -232 -52 -288 -80 -53 -27 -97 -58 -97 -68 0 -5
31 -27 70 -49 l69 -40 38 19 c21 10 74 28 118 41 70 19 105 22 285 22 217 0
296 -13 399 -63 l41 -19 68 39 c37 21 67 45 67 51 0 32 -157 102 -300 133 -85
19 -372 28 -470 14z"/>
<path d="M1418 1778 c3 -50 9 -68 28 -89 22 -23 25 -34 22 -83 l-3 -56 -69 41
c-55 34 -66 43 -52 51 33 19 14 28 -59 28 -41 0 -75 -2 -75 -5 0 -3 18 -34 40
-68 36 -56 41 -60 46 -39 4 13 9 22 13 20 30 -14 131 -74 131 -78 0 -3 -22
-16 -48 -31 -40 -22 -53 -24 -88 -16 -37 8 -47 6 -88 -18 -26 -15 -44 -31 -39
-35 4 -3 28 -12 51 -19 40 -11 43 -15 37 -38 -3 -14 -9 -39 -12 -56 l-6 -30
52 29 c44 25 53 35 62 69 9 34 18 45 60 68 l49 28 0 -81 c0 -77 -1 -81 -20
-75 -11 3 -20 4 -20 1 0 -11 64 -136 70 -136 5 1 70 125 70 135 0 4 -9 3 -20
0 -19 -6 -20 -2 -20 75 l0 81 48 -27 c40 -22 51 -34 60 -68 9 -35 19 -46 63
-70 l52 -29 -8 34 c-17 73 -14 82 32 93 23 6 44 14 48 17 3 4 -15 19 -41 34
-41 24 -52 26 -88 18 -35 -8 -48 -6 -88 16 -26 15 -48 28 -48 31 0 4 105 66
132 78 5 2 8 -6 8 -17 0 -12 3 -21 8 -21 7 0 82 114 82 125 0 3 -34 5 -75 5
-75 0 -86 -5 -62 -29 10 -10 9 -14 -3 -21 -8 -5 -39 -23 -67 -40 l-53 -30 0
58 c0 49 4 62 25 82 22 20 25 32 25 89 l0 65 -40 -39 -40 -39 -32 30 c-18 16
-34 32 -36 37 -11 23 -17 -1 -14 -55z"/>
<path d="M883 1719 c13 -256 172 -559 391 -746 60 -51 129 -94 174 -108 22 -6
22 -5 22 78 l0 84 -49 31 c-166 108 -354 415 -378 619 -5 50 -8 54 -52 79 -25
15 -61 36 -80 47 l-34 21 6 -105z"/>
<path d="M2038 1774 c-68 -40 -78 -50 -78 -74 0 -83 -87 -298 -172 -423 -54
-80 -151 -181 -209 -219 l-49 -31 0 -84 c0 -83 0 -84 23 -78 135 41 354 270
460 480 66 133 112 312 105 417 l-3 57 -77 -45z"/>
<path d="M390 1612 c0 -13 168 -224 254 -319 6 -7 81 -29 166 -48 85 -20 163
-38 173 -41 14 -5 8 12 -26 78 -25 46 -55 110 -67 143 l-23 61 -239 65 c-131
36 -238 63 -238 61z"/>
<path d="M2369 1551 l-236 -65 -23 -60 c-12 -34 -43 -99 -67 -145 -36 -66 -41
-82 -27 -78 11 4 88 22 173 42 l153 35 43 48 c89 99 231 280 224 285 -2 2
-110 -26 -240 -62z"/>
<path d="M775 1164 c162 -143 328 -233 432 -234 20 0 17 6 -25 48 -26 26 -68
71 -93 100 l-44 53 -149 34 c-82 19 -152 35 -155 35 -3 -1 12 -17 34 -36z"/>
<path d="M2095 1164 l-140 -33 -45 -53 c-24 -29 -66 -74 -92 -100 -42 -42 -45
-48 -25 -48 39 0 120 26 187 60 93 46 305 210 270 209 -8 -1 -78 -16 -155 -35z"/>
</g>
</svg>
